<?xml version="1.0" encoding="utf-8"?>
<!-- Generator: Adobe Illustrator 18.0.0, SVG Export Plug-In . SVG Version: 6.00 Build 0)  -->
<!DOCTYPE svg PUBLIC "-//W3C//DTD SVG 1.1//EN" "http://www.w3.org/Graphics/SVG/1.1/DTD/svg11.dtd">
<svg version="1.1" id="レイヤー_1" xmlns="http://www.w3.org/2000/svg" xmlns:xlink="http://www.w3.org/1999/xlink" x="0px"
	 y="0px" viewBox="0 0 260 125" enable-background="new 0 0 260 125" xml:space="preserve">
<g>
	<path d="M14.4,65.5c1.4-0.1,2.2-0.7,2.4-1.7c0.2-1,0.3-2.1,0.3-3.3c-0.1-9.4-0.1-19-0.1-28.9s0-19.7,0-29.2c1.2,0,2.4,0,3.4,0
		c1,0,2.2,0,3.5,0c0,9.2,0,18.6,0,27.9c0,9.3,0,18.5,0,27.6c0,3.2-0.3,5.9-0.9,8.2c-0.6,2.3-2.3,4.3-5.2,5.8
		c-0.9,0.4-2.1,0.6-3.6,0.6c-1.4,0-2.5-0.2-3.3-0.6c-3-1.6-4.7-3.5-5.3-5.8c-0.6-2.3-0.8-5.1-0.8-8.2c0-9.2,0-18.4,0-27.6
		c0-9.3,0-18.6,0-27.9c1.2,0,2.4,0,3.4,0c1,0,2.2,0,3.5,0c0,9.5,0,19.3,0,29.2c0,9.9,0,19.5,0,28.9c0,1.2,0.1,2.3,0.3,3.3
		C12.2,64.8,13,65.4,14.4,65.5z"/>
	<path d="M54.2,71.7c-1.7,0.1-3.4,0.1-5.2,0.2c-1.8,0.1-3.1-0.1-3.9-0.5c-3-1.6-4.7-3.5-5.3-5.8c-0.6-2.3-0.8-5.1-0.8-8.2
		c0-9.1,0-18.2,0-27.3s0-18.3,0-27.5c1.2,0,2.4,0,3.4,0c1,0,2.2,0,3.5,0c0,9.4,0,18.9,0,28.5c0,9.5,0,19,0,28.5
		c0,1.3,0.2,2.5,0.5,3.5s1.5,1.6,3.6,1.6h4.4c0,1.7,0,2.9,0,3.6C54.2,68.9,54.2,70.1,54.2,71.7z"/>
	<path d="M69.5,71.7c-0.1-10-0.1-20.5-0.2-31.3C69.3,29.6,69.3,19.1,69.3,9C68.6,9,67.5,9,66.2,9c-1.3,0.1-2.3,0.1-3,0
		c0-1.3,0-2.4,0-3.2s0-1.9,0-3.2c2.8,0,6.1,0,9.8,0c3.7,0,6.9,0,9.8,0c0,1.3,0,2.4,0,3.2s0,1.9,0,3.2c-0.8,0-1.9,0-3.3,0
		c-1.3,0-2.4,0-3.1,0c0,10.2,0,20.6,0,31.4c0,10.8,0,21.2,0,31.3c-1.3,0-2.5,0-3.4,0C71.9,71.7,70.8,71.7,69.5,71.7z"/>
	<path d="M97,2.6L97,2.6c1.9,0,4.1,0,6.6-0.1c2.5-0.1,4.6,0.1,6.3,0.6c2.8,0.8,4.6,2.7,5.2,5.6c0.6,2.9,1,5.7,1,8.5
		c0,0.2,0,0.7,0,1.3c0,0.6,0,1.2,0,1.7c0,0.8,0,1.7,0,2.7c0,1,0,1.6,0,1.8c0,2-0.1,4-0.4,6.1c-0.3,2.1-0.9,3.8-1.9,5.3
		c1,1.5,1.6,3.3,1.9,5.4c0.3,2.1,0.4,4.1,0.4,6.1c0,0.4,0,1.9,0,4.3s0,5.1,0,7.9s0,5.5,0,7.9c0,2.4,0,3.8,0,4.1h-6.9V44.9
		c0-1.3-0.2-2.6-0.5-3.8c-0.3-1.3-1.5-1.9-3.5-1.9H104c0,5.5,0,10.9,0,16.3s0,10.8,0,16.2h-7c0-11.5,0-23,0-34.5S97,14.1,97,2.6z
		 M104,8.9c0,4,0,8,0,12s0,7.9,0,11.9h1.2c2,0,3.2-0.6,3.5-1.8c0.3-1.2,0.5-2.5,0.5-3.9c0-2.1,0-4.1,0-6.2s0-4.2,0-6.2
		c0-1.3-0.2-2.6-0.5-3.8c-0.3-1.3-1.5-1.9-3.5-1.9H104z"/>
	<path d="M142.4,46c-0.9,0-1.8,0-2.7,0c-0.9,0-1.8,0-2.7,0c0,4.4,0,8.7,0,13s0,8.6,0,12.7c-1.3,0-2.4,0-3.5,0c-1,0-2.2,0-3.4,0
		c0-9.1,0-18.3,0-27.7c0-9.3,0-18.6,0-27.8c0-3.2,0.3-5.9,0.8-8.2c0.6-2.3,2.3-4.2,5.3-5.9c0.8-0.4,1.9-0.6,3.3-0.6s2.6,0.2,3.6,0.6
		c2.9,1.6,4.6,3.6,5.2,5.9c0.6,2.3,0.9,5,0.9,8.2c-0.1,9.2-0.1,18.4,0,27.8c0,9.4,0,18.6,0,27.7c-1.3,0-2.4,0-3.5,0
		c-1,0-2.2,0-3.4,0c0-4.1,0-8.4,0-12.7S142.4,50.4,142.4,46z M139.7,8.3c-1.4,0.2-2.2,0.8-2.4,1.8c-0.2,1-0.3,2.1-0.3,3.2
		c0,4.2,0,8.4,0,12.8c0,4.3,0,8.7,0,13c0.8,0,1.7,0,2.6,0c0.9,0,1.8,0,2.7,0c0-4.4,0-8.7,0-13s0-8.6,0.1-12.8c0-1.1-0.1-2.2-0.3-3.2
		C141.9,9.1,141.1,8.5,139.7,8.3z"/>
</g>
</svg>
